<?xml version="1.0" encoding="UTF-8"?>
<svg xmlns="http://www.w3.org/2000/svg" xmlns:xlink="http://www.w3.org/1999/xlink" version="1.1" id="Capa_1" x="0px" y="0px" viewBox="0 0 511.896 511.896" style="enable-background:new 0 0 511.896 511.896;" xml:space="preserve" width="512" height="512">
<g>
	<g>
		<path style="fill:#F08045;" d="M311.573,128.401c-15.779-19.453-41.149-27.947-65.604-25.005&#10;&#9;&#9;&#9;c-8.591,1.033-17.032,3.487-24.701,7.523c-8.135,4.28-15.168,10.359-20.946,17.483c-12.553,15.476-19.341,36.067-16.974,57.405&#10;&#9;&#9;&#9;c2.408,21.709,16.332,38.432,34.655,45.096c23.511,8.549,52.271,8.589,75.889-0.001c18.322-6.663,32.246-23.386,34.654-45.095&#10;&#9;&#9;&#9;C330.914,164.468,324.126,143.877,311.573,128.401z"/>
		<path style="fill:#E26D2E;" d="M328.547,185.806c-2.41,21.71-16.33,38.43-34.65,45.1c-14.89,5.41-31.81,7.39-48.18,5.98&#10;&#9;&#9;&#9;c9.59-0.82,19-2.82,27.72-5.98c18.32-6.67,32.24-23.39,34.65-45.1c2.37-21.34-4.42-41.93-16.97-57.41&#10;&#9;&#9;&#9;c-11.54-14.22-28.21-22.59-45.9-24.9c0.25-0.04,0.5-0.07,0.75-0.1c24.46-2.94,49.83,5.55,65.61,25&#10;&#9;&#9;&#9;C324.127,143.876,330.917,164.466,328.547,185.806z"/>
		<path style="fill:#F08045;" d="M376.157,221.983c-15.779-19.453-41.149-27.947-65.604-25.005&#10;&#9;&#9;&#9;c-8.591,1.033-17.032,3.487-24.701,7.523c-8.135,4.28-15.168,10.359-20.946,17.483c-12.553,15.476-19.341,36.067-16.974,57.405&#10;&#9;&#9;&#9;c2.408,21.71,16.332,38.432,34.655,45.096c23.511,8.549,52.271,8.589,75.889-0.001c18.322-6.663,32.246-23.386,34.654-45.095&#10;&#9;&#9;&#9;C395.498,258.051,388.71,237.459,376.157,221.983z"/>
		<path style="fill:#E26D2E;" d="M393.131,279.389c-2.41,21.71-16.33,38.43-34.65,45.1c-14.89,5.41-31.81,7.39-48.18,5.98&#10;&#9;&#9;&#9;c9.59-0.82,19-2.82,27.72-5.98c18.32-6.67,32.24-23.39,34.65-45.1c2.37-21.34-4.42-41.93-16.97-57.41&#10;&#9;&#9;&#9;c-11.54-14.22-28.21-22.59-45.9-24.9c0.25-0.04,0.5-0.07,0.75-0.1c24.46-2.94,49.83,5.55,65.61,25&#10;&#9;&#9;&#9;C388.711,237.459,395.501,258.049,393.131,279.389z"/>
		<path style="fill:#F08045;" d="M246.988,221.983c-15.779-19.453-41.149-27.947-65.604-25.005&#10;&#9;&#9;&#9;c-8.591,1.033-17.032,3.487-24.701,7.523c-8.135,4.28-15.168,10.359-20.946,17.483c-12.553,15.476-19.341,36.067-16.974,57.405&#10;&#9;&#9;&#9;c2.408,21.71,16.332,38.432,34.655,45.096c23.511,8.549,52.271,8.589,75.889-0.001c18.322-6.663,32.246-23.386,34.654-45.095&#10;&#9;&#9;&#9;C266.329,258.051,259.542,237.459,246.988,221.983z"/>
		<path style="fill:#E26D2E;" d="M263.961,279.389c-2.41,21.71-16.33,38.43-34.65,45.1c-14.89,5.41-31.81,7.39-48.18,5.98&#10;&#9;&#9;&#9;c9.59-0.82,19-2.82,27.72-5.98c18.32-6.67,32.25-23.39,34.65-45.1c2.37-21.34-4.42-41.93-16.97-57.41&#10;&#9;&#9;&#9;c-11.54-14.22-28.21-22.59-45.9-24.9c0.25-0.04,0.5-0.07,0.75-0.1c24.46-2.94,49.83,5.55,65.61,25&#10;&#9;&#9;&#9;C259.541,237.459,266.331,258.049,263.961,279.389z"/>
		<path style="fill:#F08045;" d="M181.953,315.312c-15.779-19.453-41.149-27.947-65.604-25.005&#10;&#9;&#9;&#9;c-8.591,1.033-17.032,3.487-24.701,7.523c-8.135,4.28-15.168,10.359-20.946,17.483c-12.553,15.476-19.341,36.067-16.974,57.405&#10;&#9;&#9;&#9;c2.408,21.71,16.332,38.432,34.655,45.096c23.511,8.549,52.271,8.589,75.889-0.001c18.322-6.663,32.246-23.386,34.654-45.095&#10;&#9;&#9;&#9;C201.293,351.38,194.506,330.788,181.953,315.312z"/>
		<path style="fill:#E26D2E;" d="M198.928,372.718c-2.41,21.71-16.33,38.43-34.66,45.1c-14.88,5.41-31.8,7.39-48.17,5.98&#10;&#9;&#9;&#9;c9.59-0.82,19-2.82,27.72-5.98c18.32-6.67,32.24-23.39,34.65-45.1c2.37-21.34-4.42-41.93-16.97-57.41&#10;&#9;&#9;&#9;c-11.54-14.22-28.21-22.59-45.9-24.9c0.25-0.04,0.5-0.07,0.75-0.1c24.46-2.94,49.83,5.55,65.6,25&#10;&#9;&#9;&#9;C194.508,330.788,201.298,351.378,198.928,372.718z"/>
		<path style="fill:#F08045;" d="M441.194,315.312c-15.779-19.453-41.149-27.947-65.604-25.005&#10;&#9;&#9;&#9;c-8.591,1.033-17.032,3.487-24.701,7.523c-8.135,4.28-15.168,10.359-20.946,17.483c-12.553,15.476-19.341,36.067-16.974,57.405&#10;&#9;&#9;&#9;c2.408,21.71,16.332,38.432,34.655,45.096c23.511,8.549,52.271,8.589,75.889-0.001c18.322-6.663,32.246-23.386,34.654-45.095&#10;&#9;&#9;&#9;C460.535,351.38,453.747,330.788,441.194,315.312z"/>
		<path style="fill:#E26D2E;" d="M458.168,372.718c-2.41,21.71-16.33,38.43-34.65,45.1c-14.89,5.41-31.81,7.39-48.18,5.98&#10;&#9;&#9;&#9;c9.59-0.82,19-2.82,27.72-5.98c18.32-6.67,32.24-23.39,34.65-45.1c2.37-21.34-4.42-41.93-16.97-57.41&#10;&#9;&#9;&#9;c-11.54-14.22-28.21-22.59-45.9-24.9c0.25-0.04,0.5-0.07,0.75-0.1c24.46-2.94,49.83,5.55,65.61,25&#10;&#9;&#9;&#9;C453.748,330.788,460.538,351.378,458.168,372.718z"/>
		<path style="fill:#F08045;" d="M312.025,315.312c-15.779-19.453-41.149-27.947-65.604-25.005&#10;&#9;&#9;&#9;c-8.591,1.033-17.032,3.487-24.701,7.523c-8.135,4.28-15.168,10.359-20.946,17.483c-12.553,15.476-19.341,36.067-16.974,57.405&#10;&#9;&#9;&#9;c2.408,21.71,16.332,38.432,34.655,45.096c23.511,8.549,52.271,8.589,75.889-0.001c18.322-6.663,32.246-23.386,34.654-45.095&#10;&#9;&#9;&#9;C331.366,351.38,324.579,330.788,312.025,315.312z"/>
		<path style="fill:#E26D2E;" d="M328.998,372.718c-2.41,21.71-16.33,38.43-34.65,45.1c-14.89,5.41-31.81,7.39-48.18,5.98&#10;&#9;&#9;&#9;c9.59-0.82,19-2.82,27.72-5.98c18.32-6.67,32.25-23.39,34.65-45.1c2.37-21.34-4.42-41.93-16.97-57.41&#10;&#9;&#9;&#9;c-11.54-14.22-28.21-22.59-45.9-24.9c0.25-0.04,0.5-0.07,0.75-0.1c24.46-2.94,49.83,5.55,65.61,25&#10;&#9;&#9;&#9;C324.578,330.788,331.368,351.378,328.998,372.718z"/>
		<path style="fill:#D4E8ED;" d="M475.502,464.36H36.394c-10.849,0-19.645-8.795-19.645-19.645v-15.711&#10;&#9;&#9;&#9;c0-2.585,2.095-4.68,4.68-4.68h469.038c2.584,0,4.68,2.095,4.68,4.68v15.711C495.147,455.565,486.351,464.36,475.502,464.36z"/>
		<path style="fill:#D4E8ED;" d="M436.317,504.396H75.579c-5.444,0-9.857-4.413-9.857-9.857V464.36h380.453v30.178&#10;&#9;&#9;&#9;C446.174,499.982,441.761,504.396,436.317,504.396z"/>
		<path style="fill:#C0D4DE;" d="M495.148,429.008v15.71c0,10.85-8.8,19.64-19.65,19.64h-20.64c10.85,0,19.65-8.79,19.65-19.64&#10;&#9;&#9;&#9;v-15.71c0-2.59-2.1-4.68-4.68-4.68h20.64C493.048,424.328,495.148,426.418,495.148,429.008z"/>
		<path style="fill:#C0D4DE;" d="M446.178,464.358v30.18c0,5.44-4.42,9.86-9.86,9.86h-20.64c5.44,0,9.85-4.42,9.85-9.86v-30.18&#10;&#9;&#9;&#9;H446.178z"/>
		<path style="fill:#6FDB75;" d="M324.996,69.844h-69.049V7.5h69.049c4.991,0,9.037,4.046,9.037,9.037v44.271&#10;&#9;&#9;&#9;C334.033,65.798,329.987,69.844,324.996,69.844z"/>
		<path style="fill:#3DD358;" d="M334.034,16.538v44.27c0,4.99-4.05,9.04-9.04,9.04h-20.11c4.99,0,9.03-4.05,9.03-9.04v-44.27&#10;&#9;&#9;&#9;c0-4.99-4.04-9.04-9.03-9.04h20.11C329.984,7.498,334.034,11.548,334.034,16.538z"/>
	</g>
	<g>
		<path style="fill:none;stroke:#000000;stroke-width:15;stroke-linecap:round;stroke-linejoin:round;stroke-miterlimit:10;" d="&#10;&#9;&#9;&#9;M328.481,168.36c-1.764-14.894-7.828-28.765-16.908-39.959c-15.779-19.453-41.149-27.947-65.604-25.005&#10;&#9;&#9;&#9;c-8.591,1.033-17.032,3.487-24.701,7.523c-8.135,4.28-15.168,10.359-20.946,17.483c-9.426,11.621-15.602,26.127-17.091,41.667"/>
		<path style="fill:none;stroke:#000000;stroke-width:15;stroke-linecap:round;stroke-linejoin:round;stroke-miterlimit:10;" d="&#10;&#9;&#9;&#9;M261.85,289.741c0.998-3.299,1.713-6.757,2.112-10.352c2.367-21.338-4.42-41.929-16.974-57.405&#10;&#9;&#9;&#9;c-15.779-19.453-41.149-27.947-65.604-25.005c-8.591,1.033-17.032,3.487-24.701,7.523c-8.135,4.28-15.168,10.359-20.946,17.483&#10;&#9;&#9;&#9;c-12.553,15.476-19.341,36.067-16.974,57.405c0.399,3.595,1.113,7.053,2.112,10.352"/>
		<g>
			
				<line style="fill:none;stroke:#000000;stroke-width:15;stroke-linecap:round;stroke-linejoin:round;stroke-miterlimit:10;" x1="170.406" y1="242.285" x2="170.406" y2="242.285"/>
		</g>
		<g>
			
				<line style="fill:none;stroke:#000000;stroke-width:15;stroke-linecap:round;stroke-linejoin:round;stroke-miterlimit:10;" x1="179.542" y1="271.06" x2="179.542" y2="271.06"/>
		</g>
		<g>
			
				<line style="fill:none;stroke:#000000;stroke-width:15;stroke-linecap:round;stroke-linejoin:round;stroke-miterlimit:10;" x1="210.695" y1="239.907" x2="210.695" y2="239.907"/>
		</g>
		<g>
			
				<line style="fill:none;stroke:#000000;stroke-width:15;stroke-linecap:round;stroke-linejoin:round;stroke-miterlimit:10;" x1="320.532" y1="263.66" x2="320.532" y2="263.66"/>
		</g>
		<g>
			
				<line style="fill:none;stroke:#000000;stroke-width:15;stroke-linecap:round;stroke-linejoin:round;stroke-miterlimit:10;" x1="239.455" y1="151.148" x2="239.455" y2="151.148"/>
		</g>
		<g>
			
				<line style="fill:none;stroke:#000000;stroke-width:15;stroke-linecap:round;stroke-linejoin:round;stroke-miterlimit:10;" x1="256.4" y1="170.077" x2="256.4" y2="170.077"/>
		</g>
		<g>
			
				<line style="fill:none;stroke:#000000;stroke-width:15;stroke-linecap:round;stroke-linejoin:round;stroke-miterlimit:10;" x1="358.117" y1="263.66" x2="358.117" y2="263.66"/>
		</g>
		<g>
			
				<line style="fill:none;stroke:#000000;stroke-width:15;stroke-linecap:round;stroke-linejoin:round;stroke-miterlimit:10;" x1="307.712" y1="242.285" x2="307.712" y2="242.285"/>
		</g>
		<path style="fill:none;stroke:#000000;stroke-width:15;stroke-linecap:round;stroke-linejoin:round;stroke-miterlimit:10;" d="&#10;&#9;&#9;&#9;M177.551,310.411c-15.855-15.964-38.909-22.786-61.202-20.104c-8.591,1.033-17.032,3.487-24.701,7.523&#10;&#9;&#9;&#9;c-8.135,4.28-15.168,10.359-20.946,17.483c-12.553,15.476-19.341,36.067-16.974,57.405c2.408,21.71,16.332,38.432,34.655,45.096&#10;&#9;&#9;&#9;c23.511,8.549,52.271,8.589,75.889-0.001c10.106-3.675,18.874-10.411,25.11-19.356"/>
		<path style="fill:none;stroke:#000000;stroke-width:15;stroke-linecap:round;stroke-linejoin:round;stroke-miterlimit:10;" d="&#10;&#9;&#9;&#9;M321.837,397.462c6.27,9.441,15.309,16.54,25.787,20.351c23.511,8.549,52.271,8.589,75.889-0.001&#10;&#9;&#9;&#9;c18.322-6.663,32.246-23.386,34.654-45.095c2.367-21.338-4.42-41.929-16.974-57.405c-15.779-19.453-41.149-27.947-65.604-25.005&#10;&#9;&#9;&#9;c-8.591,1.033-17.032,3.487-24.701,7.523c-4.698,2.472-9.028,5.543-12.961,9.069"/>
		<path style="fill:none;stroke:#000000;stroke-width:15;stroke-linecap:round;stroke-linejoin:round;stroke-miterlimit:10;" d="&#10;&#9;&#9;&#9;M312.025,315.312c-15.779-19.453-41.149-27.947-65.604-25.005c-8.591,1.033-17.032,3.487-24.701,7.523&#10;&#9;&#9;&#9;c-8.135,4.28-15.168,10.359-20.946,17.483c-12.553,15.476-19.341,36.067-16.974,57.405c2.408,21.71,16.332,38.432,34.655,45.096&#10;&#9;&#9;&#9;c23.511,8.549,52.271,8.589,75.889-0.001c18.322-6.663,32.246-23.386,34.654-45.095&#10;&#9;&#9;&#9;C331.366,351.38,324.579,330.788,312.025,315.312z"/>
		<g>
			
				<line style="fill:none;stroke:#000000;stroke-width:15;stroke-linecap:round;stroke-linejoin:round;stroke-miterlimit:10;" x1="239.455" y1="330.171" x2="239.455" y2="330.171"/>
		</g>
		<g>
			
				<line style="fill:none;stroke:#000000;stroke-width:15;stroke-linecap:round;stroke-linejoin:round;stroke-miterlimit:10;" x1="244.579" y1="364.389" x2="244.579" y2="364.389"/>
		</g>
		<g>
			
				<line style="fill:none;stroke:#000000;stroke-width:15;stroke-linecap:round;stroke-linejoin:round;stroke-miterlimit:10;" x1="217.171" y1="347.813" x2="217.171" y2="347.813"/>
		</g>
		<g>
			
				<line style="fill:none;stroke:#000000;stroke-width:15;stroke-linecap:round;stroke-linejoin:round;stroke-miterlimit:10;" x1="126.327" y1="356.989" x2="126.327" y2="356.989"/>
		</g>
		<g>
			
				<line style="fill:none;stroke:#000000;stroke-width:15;stroke-linecap:round;stroke-linejoin:round;stroke-miterlimit:10;" x1="113.508" y1="335.614" x2="113.508" y2="335.614"/>
		</g>
		<g>
			
				<line style="fill:none;stroke:#000000;stroke-width:15;stroke-linecap:round;stroke-linejoin:round;stroke-miterlimit:10;" x1="385.569" y1="356.989" x2="385.569" y2="356.989"/>
		</g>
		<g>
			
				<line style="fill:none;stroke:#000000;stroke-width:15;stroke-linecap:round;stroke-linejoin:round;stroke-miterlimit:10;" x1="372.749" y1="335.614" x2="372.749" y2="335.614"/>
		</g>
		<path style="fill:none;stroke:#000000;stroke-width:15;stroke-linecap:round;stroke-linejoin:round;stroke-miterlimit:10;" d="&#10;&#9;&#9;&#9;M475.502,464.36H36.394c-10.849,0-19.645-8.795-19.645-19.645v-15.711c0-2.585,2.095-4.68,4.68-4.68h469.038&#10;&#9;&#9;&#9;c2.584,0,4.68,2.095,4.68,4.68v15.711C495.147,455.565,486.351,464.36,475.502,464.36z"/>
		<path style="fill:none;stroke:#000000;stroke-width:15;stroke-linecap:round;stroke-linejoin:round;stroke-miterlimit:10;" d="&#10;&#9;&#9;&#9;M132.38,504.396H75.579c-5.444,0-9.857-4.413-9.857-9.857V464.36h380.453v30.178c0,5.444-4.413,9.857-9.857,9.857H167.455"/>
		
			<line style="fill:none;stroke:#000000;stroke-width:15;stroke-linecap:round;stroke-linejoin:round;stroke-miterlimit:10;" x1="255.948" y1="102.827" x2="255.948" y2="14.939"/>
		<path style="fill:none;stroke:#000000;stroke-width:15;stroke-linecap:round;stroke-linejoin:round;stroke-miterlimit:10;" d="&#10;&#9;&#9;&#9;M311.25,7.5h13.746c4.991,0,9.037,4.046,9.037,9.037v44.271c0,4.991-4.046,9.037-9.037,9.037h-69.049V7.5h19.888"/>
		<path style="fill:none;stroke:#000000;stroke-width:15;stroke-linecap:round;stroke-linejoin:round;stroke-miterlimit:10;" d="&#10;&#9;&#9;&#9;M391.019,289.741c0.998-3.299,1.713-6.757,2.112-10.352c2.367-21.338-4.42-41.929-16.974-57.405&#10;&#9;&#9;&#9;c-15.779-19.453-41.149-27.947-65.604-25.005c-8.591,1.033-17.032,3.487-24.701,7.523c-8.135,4.28-15.168,10.359-20.946,17.483&#10;&#9;&#9;&#9;c-3.138,3.869-5.916,8.058-8.281,12.498"/>
	</g>
</g>















</svg>
