<?xml version="1.0" encoding="iso-8859-1"?>
<!-- Generator: Adobe Illustrator 19.0.0, SVG Export Plug-In . SVG Version: 6.00 Build 0)  -->
<svg version="1.1" id="Capa_1" xmlns="http://www.w3.org/2000/svg" xmlns:xlink="http://www.w3.org/1999/xlink" x="0px" y="0px"
	 viewBox="0 0 512 512" style="enable-background:new 0 0 512 512;" xml:space="preserve">
<path style="fill:#FDC536;" d="M510.029,215.441l-36.975-88.747c-3.959-9.549-13.286-15.77-23.629-15.753H25.6
	c-14.14,0-25.6,11.46-25.6,25.6v187.733c0,14.14,11.46,25.6,25.6,25.6h460.8c14.14,0,25.6-11.46,25.6-25.6v-98.987
	C512.009,221.91,511.334,218.556,510.029,215.441z"/>
<rect x="213.333" y="153.6" style="fill:#FEE8AF;" width="85.333" height="196.267"/>
<path style="fill:#FDD15E;" d="M510.029,215.441l-33.971-81.527C436.284,233.14,357.06,311.373,257.331,349.876H486.4
	c14.14,0,25.6-11.46,25.6-25.6v-98.987C512.009,221.91,511.334,218.556,510.029,215.441z"/>
<g>
	<polygon style="fill:#3CB2CA;" points="494.933,213.342 409.6,213.342 409.6,162.142 473.216,162.142 	"/>
	<rect x="51.2" y="162.134" style="fill:#3CB2CA;" width="51.2" height="51.2"/>
</g>
<g>
	<path style="fill:#42210B;" d="M128,290.142L128,290.142c28.279,0,51.2,22.921,51.2,51.2l0,0c0,28.279-22.921,51.2-51.2,51.2l0,0
		c-28.279,0-51.2-22.921-51.2-51.2l0,0C76.8,313.063,99.721,290.142,128,290.142z"/>
	<path style="fill:#42210B;" d="M384,290.142L384,290.142c28.279,0,51.2,22.921,51.2,51.2l0,0c0,28.279-22.921,51.2-51.2,51.2l0,0
		c-28.279,0-51.2-22.921-51.2-51.2l0,0C332.8,313.063,355.721,290.142,384,290.142z"/>
</g>
<g>
	<path style="fill:#FDC536;" d="M128,324.276L128,324.276c9.429,0,17.067,7.637,17.067,17.067l0,0
		c0,9.429-7.637,17.067-17.067,17.067l0,0c-9.429,0-17.067-7.637-17.067-17.067l0,0C110.933,331.913,118.571,324.276,128,324.276z"
		/>
	<path style="fill:#FDC536;" d="M384,324.276L384,324.276c9.429,0,17.067,7.637,17.067,17.067l0,0
		c0,9.429-7.637,17.067-17.067,17.067l0,0c-9.429,0-17.067-7.637-17.067-17.067l0,0C366.933,331.913,374.571,324.276,384,324.276z"
		/>
</g>
<g>
	<rect y="247.467" style="fill:#E65848;" width="213.333" height="17.067"/>
	<rect x="298.667" y="247.467" style="fill:#E65848;" width="213.333" height="17.067"/>
</g>
<path style="fill:#0B9FBD;" d="M60.476,213.342H102.4v-51.2h-7.902C86.042,180.958,74.547,198.255,60.476,213.342z"/>
<rect x="119.467" y="162.134" style="fill:#3CB2CA;" width="51.2" height="51.2"/>
<path style="fill:#0B9FBD;" d="M128.742,213.342h41.924v-51.2h-7.902C154.308,180.958,142.814,198.255,128.742,213.342z"/>
<rect x="341.333" y="162.134" style="fill:#3CB2CA;" width="51.2" height="51.2"/>
<g>
	<path style="fill:#0B9FBD;" d="M350.609,213.342h41.924v-51.2h-7.902C376.175,180.958,364.681,198.255,350.609,213.342z"/>
	<path style="fill:#0B9FBD;" d="M463.454,162.142c-8.875,17.835-19.132,34.953-30.669,51.2h62.148l-21.717-51.2H463.454z"/>
</g>
<path style="fill:#FDF5C9;" d="M213.333,312.525v37.35h85.333V202.42C284.604,248.303,254.251,287.463,213.333,312.525z"/>
<path d="M128,315.742c-10.812,0.043-20.429,6.878-24.03,17.067c-2.099,5.495-2.099,11.571,0,17.067
	c4.634,13.269,19.14,20.275,32.41,15.642c7.33-2.56,13.082-8.311,15.642-15.642c2.099-5.495,2.099-11.571,0-17.067
	C148.42,322.62,138.803,315.793,128,315.742z M128,349.876c-4.71,0-8.533-3.823-8.533-8.533s3.823-8.533,8.533-8.533
	c4.71,0,8.533,3.823,8.533,8.533S132.71,349.876,128,349.876z"/>
<path d="M102.4,145.076H34.133v85.333h153.6v-85.333H102.4z M102.4,213.342H51.2v-51.2h51.2V213.342z M170.667,213.342h-51.2v-51.2
	h51.2V213.342z"/>
<path d="M510.037,215.441l-36.975-88.747c-3.959-9.557-13.295-15.77-23.637-15.753H25.6c-14.14,0-25.6,11.46-25.6,25.6v187.733
	c0,14.14,11.46,25.6,25.6,25.6h43.349c4.685,32.614,34.918,55.253,67.533,50.569c26.214-3.763,46.805-24.354,50.569-50.569h137.899
	c4.685,32.614,34.918,55.253,67.533,50.569c26.214-3.763,46.805-24.354,50.569-50.569H486.4c14.14,0,25.6-11.46,25.6-25.6v-98.987
	C512.009,221.91,511.343,218.556,510.037,215.441z M469.333,162.142L469.333,162.142l21.333,51.2H409.6v-51.2H469.333z
	 M169.813,349.876c-4.693,23.091-27.213,38.016-50.304,33.323c-23.091-4.693-38.016-27.213-33.323-50.304
	c4.693-23.091,27.213-38.016,50.304-33.323c19.866,4.036,34.159,21.495,34.176,41.771
	C170.667,344.209,170.385,347.068,169.813,349.876z M204.8,332.809h-17.749c-4.685-32.614-34.918-55.253-67.533-50.569
	c-26.214,3.763-46.805,24.354-50.569,50.569H25.6c-4.71,0-8.533-3.823-8.533-8.533v-59.733H204.8V332.809z M290.133,247.476v85.333
	h-68.267V162.142h68.267V247.476z M425.813,349.876c-4.693,23.091-27.213,38.016-50.304,33.323
	c-23.091-4.693-38.016-27.213-33.323-50.304c4.693-23.091,27.213-38.016,50.304-33.323c19.866,4.036,34.159,21.495,34.176,41.771
	C426.667,344.209,426.385,347.068,425.813,349.876z M494.933,324.276c0,4.71-3.823,8.533-8.533,8.533h-43.349
	c-4.685-32.614-34.918-55.253-67.533-50.569c-26.214,3.763-46.805,24.354-50.569,50.569H307.2v-68.267h187.733V324.276z
	 M494.933,247.476H307.2v-102.4H204.8v102.4H17.067V136.542c0-4.71,3.823-8.533,8.533-8.533h423.825
	c3.447,0,6.554,2.074,7.876,5.248l4.924,11.819H324.267v85.333h170.667V247.476z M392.533,162.142v51.2h-51.2v-51.2H392.533z"/>
<path d="M384,315.742c-10.812,0.043-20.429,6.878-24.03,17.067c-2.099,5.495-2.099,11.571,0,17.067
	c4.634,13.269,19.14,20.275,32.41,15.642c7.33-2.56,13.082-8.311,15.642-15.642c2.099-5.495,2.099-11.571,0-17.067
	C404.42,322.62,394.803,315.793,384,315.742z M384,349.876c-4.71,0-8.533-3.823-8.533-8.533s3.823-8.533,8.533-8.533
	s8.533,3.823,8.533,8.533S388.71,349.876,384,349.876z"/>
<g>
</g>
<g>
</g>
<g>
</g>
<g>
</g>
<g>
</g>
<g>
</g>
<g>
</g>
<g>
</g>
<g>
</g>
<g>
</g>
<g>
</g>
<g>
</g>
<g>
</g>
<g>
</g>
<g>
</g>
</svg>
