<svg width="591" height="703" viewBox="0 0 591 703" fill="none" xmlns="http://www.w3.org/2000/svg">
<path d="M590.782 659.961C592.693 682.708 574.746 702.227 551.919 702.227H39.4147C16.5874 702.227 -1.35979 682.708 0.551732 659.961L40.6638 182.628C42.3614 162.426 59.2538 146.893 79.5268 146.893H511.807C532.08 146.893 548.972 162.426 550.67 182.628L590.782 659.961ZM34.6875 628.923C32.8237 651.644 50.7604 671.112 73.5569 671.112H517.79C540.587 671.112 558.523 651.644 556.66 628.924L522.614 213.817C520.955 193.582 504.048 178.005 483.745 178.005H107.609C87.3062 178.005 70.3995 193.582 68.7396 213.817L34.6875 628.923Z" fill="white"/>
<path d="M428.448 267.562C428.448 276.153 421.484 283.117 412.893 283.117C404.302 283.117 397.338 276.153 397.338 267.563L397.333 132.224C397.333 76.224 352.224 31.1147 296.224 31.1147C240.224 31.1147 195.115 76.224 195.115 132.224V266.002C195.115 274.593 188.15 281.557 179.56 281.557C170.969 281.557 164.005 274.593 164.005 266.003L164 132.224C164 59.1147 223.109 0 296.224 0C369.333 0 428.448 59.1093 428.448 132.224L428.448 267.562Z" fill="white"/>
</svg>
